<mxfile host="Electron" modified="2025-02-16T09:24:52.784Z" agent="Mozilla/5.0 (Macintosh; Intel Mac OS X 10_15_7) AppleWebKit/537.36 (KHTML, like Gecko) draw.io/21.6.8 Chrome/114.0.5735.289 Electron/25.5.0 Safari/537.36" etag="A5QUFLzZh-F4_2A6aZXn" version="21.6.8" type="device">
  <diagram name="Страница — 1" id="-MtnHJaRHqUQfTExYlMA">
    <mxGraphModel dx="1831" dy="624" grid="1" gridSize="10" guides="1" tooltips="1" connect="1" arrows="1" fold="1" page="1" pageScale="1" pageWidth="827" pageHeight="1169" math="0" shadow="0">
      <root>
        <mxCell id="0" />
        <mxCell id="1" parent="0" />
        <mxCell id="9sO5gI7DvF88aYI1E9oD-1" value="" style="edgeStyle=orthogonalEdgeStyle;rounded=0;orthogonalLoop=1;jettySize=auto;html=1;exitX=0;exitY=0.5;exitDx=10;exitDy=0;exitPerimeter=0;" parent="1" source="oRBoaf8Eejg7w21ppIck-3" target="9sO5gI7DvF88aYI1E9oD-3" edge="1">
          <mxGeometry relative="1" as="geometry">
            <mxPoint x="500" y="240" as="sourcePoint" />
          </mxGeometry>
        </mxCell>
        <mxCell id="9sO5gI7DvF88aYI1E9oD-3" value="Business&lt;br&gt;Logic" style="shape=module;align=left;spacingLeft=20;align=center;verticalAlign=top;whiteSpace=wrap;html=1;" parent="1" vertex="1">
          <mxGeometry x="270" y="190" width="190" height="100" as="geometry" />
        </mxCell>
        <mxCell id="9sO5gI7DvF88aYI1E9oD-4" value="" style="edgeStyle=orthogonalEdgeStyle;rounded=0;orthogonalLoop=1;jettySize=auto;html=1;exitX=0;exitY=0.5;exitDx=10;exitDy=0;exitPerimeter=0;entryX=1;entryY=0.5;entryDx=0;entryDy=0;entryPerimeter=0;" parent="1" source="9sO5gI7DvF88aYI1E9oD-6" target="9sO5gI7DvF88aYI1E9oD-7" edge="1">
          <mxGeometry relative="1" as="geometry">
            <mxPoint x="10" y="265" as="targetPoint" />
          </mxGeometry>
        </mxCell>
        <mxCell id="9sO5gI7DvF88aYI1E9oD-5" value="" style="edgeStyle=orthogonalEdgeStyle;rounded=0;orthogonalLoop=1;jettySize=auto;html=1;entryX=0;entryY=0.5;entryDx=10;entryDy=0;entryPerimeter=0;" parent="1" source="9sO5gI7DvF88aYI1E9oD-6" target="9sO5gI7DvF88aYI1E9oD-3" edge="1">
          <mxGeometry relative="1" as="geometry" />
        </mxCell>
        <mxCell id="9sO5gI7DvF88aYI1E9oD-6" value="Data&lt;br&gt;Access" style="shape=module;align=left;spacingLeft=20;align=center;verticalAlign=top;whiteSpace=wrap;html=1;" parent="1" vertex="1">
          <mxGeometry x="50" y="155" width="190" height="170" as="geometry" />
        </mxCell>
        <mxCell id="9sO5gI7DvF88aYI1E9oD-7" value="DB" style="shape=cylinder3;whiteSpace=wrap;html=1;boundedLbl=1;backgroundOutline=1;size=15;" parent="1" vertex="1">
          <mxGeometry x="-50" y="200" width="60" height="80" as="geometry" />
        </mxCell>
        <mxCell id="9sO5gI7DvF88aYI1E9oD-15" value="Avito Shop Service" style="html=1;whiteSpace=wrap;" parent="1" vertex="1">
          <mxGeometry x="292" y="247" width="159" height="30" as="geometry" />
        </mxCell>
        <mxCell id="9sO5gI7DvF88aYI1E9oD-17" value="Merch Repository" style="html=1;whiteSpace=wrap;" parent="1" vertex="1">
          <mxGeometry x="70" y="200" width="70" height="30" as="geometry" />
        </mxCell>
        <mxCell id="9sO5gI7DvF88aYI1E9oD-20" value="User Repository" style="html=1;whiteSpace=wrap;" parent="1" vertex="1">
          <mxGeometry x="159" y="200" width="70" height="30" as="geometry" />
        </mxCell>
        <mxCell id="9sO5gI7DvF88aYI1E9oD-22" value="Inventory Repository" style="html=1;whiteSpace=wrap;" parent="1" vertex="1">
          <mxGeometry x="70" y="280" width="159" height="30" as="geometry" />
        </mxCell>
        <mxCell id="9sO5gI7DvF88aYI1E9oD-23" value="Transaction Repository" style="html=1;whiteSpace=wrap;" parent="1" vertex="1">
          <mxGeometry x="70" y="240" width="160" height="30" as="geometry" />
        </mxCell>
        <mxCell id="oRBoaf8Eejg7w21ppIck-3" value="Handlers" style="shape=module;align=left;spacingLeft=20;align=center;verticalAlign=top;whiteSpace=wrap;html=1;" vertex="1" parent="1">
          <mxGeometry x="490" y="155" width="190" height="170" as="geometry" />
        </mxCell>
        <mxCell id="oRBoaf8Eejg7w21ppIck-4" value="Purchase Handler" style="html=1;whiteSpace=wrap;" vertex="1" parent="1">
          <mxGeometry x="510" y="200" width="70" height="30" as="geometry" />
        </mxCell>
        <mxCell id="oRBoaf8Eejg7w21ppIck-5" value="Auth Handler" style="html=1;whiteSpace=wrap;" vertex="1" parent="1">
          <mxGeometry x="599" y="200" width="70" height="30" as="geometry" />
        </mxCell>
        <mxCell id="oRBoaf8Eejg7w21ppIck-6" value="Info Handler" style="html=1;whiteSpace=wrap;" vertex="1" parent="1">
          <mxGeometry x="510" y="280" width="159" height="30" as="geometry" />
        </mxCell>
        <mxCell id="oRBoaf8Eejg7w21ppIck-7" value="Coin Handler" style="html=1;whiteSpace=wrap;" vertex="1" parent="1">
          <mxGeometry x="510" y="240" width="160" height="30" as="geometry" />
        </mxCell>
      </root>
    </mxGraphModel>
  </diagram>
</mxfile>
